#!OML:ASF Y:\EmotionMaleHayes\Project 1\Capture day 1\Session 1\Male1.ASF
:FULLY-SPECIFIED
:DEGREES
403
root -4.41358 15.5605 13.9615 15.2507 115.051 15.0295
lowerback 12.606 -1.78535 0.352883
upperback 5.85149 -1.88976 2.49559
thorax -0.859346 -0.8107 2.64018
lowerneck -21.7986 5.85123 8.82303
upperneck 28.0851 7.64641 -5.96979
head 13.7679 3.61387 -2.41746
rclavicle -4.42296e-014 2.64384e-014
rhumerus -56.3301 18.5902 -71.8583
rradius 41.6821
rwrist 2.91935
rhand -22.4635 -31.3519
rfingers 7.12502
rthumb 3.96114 -61.2949
lclavicle -4.42296e-014 2.64384e-014
lhumerus -25.1639 -36.0242 93.34
lradius 74.9008
lwrist 18.7227
lhand -30.8928 -28.4147
lfingers 7.12502
lthumb -4.17962 1.52407
rfemur -23.6951 -0.500264 6.6884
rtibia 36.3246
rfoot -18.8846 -1.49792
rtoes -36.0035
lfemur 12.0061 -3.59467 -22.5876
ltibia 55.7753
lfoot -7.29101 2.03422
ltoes 19.2005
404
root -4.21934 15.6142 13.9303 16.9621 116.331 16.7592
lowerback 12.6186 -1.81174 1.388
upperback 5.81174 -1.78733 2.74216
thorax -0.937788 -0.738105 2.30198
lowerneck -21.7224 5.63452 8.79046
upperneck 28.1022 7.34871 -5.936
head 13.7275 3.49203 -2.45702
rclavicle -2.80286e-014 -2.72335e-014
rhumerus -54.287 16.8587 -71.7688
rradius 41.3763
rwrist 3.00641
rhand -22.9151 -31.4624
rfingers 7.12502
rthumb 3.52508 -61.413
lclavicle -2.80286e-014 -2.72335e-014
lhumerus -26.29 -35.0104 94.7307
lradius 71.2203
lwrist 18.2829
lhand -30.6624 -27.5021
lfingers 7.12502
lthumb -3.95714 2.4409
rfemur -22.4022 -0.665379 8.1763
rtibia 35.8496
rfoot -19.5427 -1.93706
rtoes -34.3825
lfemur 9.2361 -2.81603 -20.6861
ltibia 58.8259
lfoot -8.25716 2.70192
ltoes 18.3608
405
root -4.05191 15.6796 13.9175 17.752 118.359 17.4743
lowerback 12.9441 -2.04682 2.24806
upperback 5.69049 -1.9567 3.0138
thorax -1.25404 -0.803977 2.13698
lowerneck -21.7749 5.35147 8.50395
upperneck 28.1538 6.99956 -5.78718
head 13.7071 3.33315 -2.41564
rclavicle -3.27001e-014 3.57812e-015
rhumerus -52.2818 15.3133 -71.9533
rradius 41.2518
rwrist 2.43033
rhand -23.5392 -31.4334
rfingers 7.12502
rthumb 2.92242 -61.3931
lclavicle -3.27001e-014 3.57812e-015
lhumerus -27.0114 -33.8792 95.8822
lradius 67.1937
lwrist 18.0475
lhand -30.2556 -27.1454
lfingers 7.12502
lthumb -3.5643 2.8045
rfemur -20.6013 -0.99604 9.32435
rtibia 34.4913
rfoot -19.7573 -3.20842
rtoes -33.7232
lfemur 5.93965 -2.63864 -19.0139
ltibia 61.8216
lfoot -8.27468 3.31994
ltoes 18.041
406
root -3.84639 15.7443 13.8594 18.3207 118.696 17.9264
lowerback 12.7401 -1.71216 2.67114
upperback 5.65861 -1.47998 2.93493
thorax -1.20071 -0.56023 1.74591
lowerneck -21.8644 5.00536 8.05288
upperneck 28.3154 6.54244 -5.37737
head 13.7155 3.14686 -2.26249
rclavicle -3.42904e-014 3.57812e-015
rhumerus -50.6875 13.861 -72.4852
rradius 41.5899
rwrist 1.74808
rhand -23.5816 -31.3581
rfingers 7.12502
rthumb 2.88139 -61.3184
lclavicle -3.42904e-014 3.57812e-015
lhumerus -27.7029 -32.6484 96.8407
lradius 62.9834
lwrist 17.924
lhand -30.1712 -27.1853
lfingers 7.12502
lthumb -3.48275 2.76598
rfemur -19.2106 -0.401039 10.0293
rtibia 33.2457
rfoot -19.95 -4.00223
rtoes -34.4118
lfemur 3.24433 -0.85563 -18.142
ltibia 63.8704
lfoot -9.10938 2.9342
ltoes 17.6804
407
root -3.66703 15.8167 13.8242 18.2505 119.888 17.6217
lowerback 12.9936 -1.62261 2.81312
upperback 5.44201 -1.32561 3.00813
thorax -1.56702 -0.486034 1.73012
lowerneck -21.8575 4.68433 7.66766
upperneck 28.3298 6.16075 -5.17211
head 13.6631 2.97247 -2.18745
rclavicle -5.19822e-014 2.34566e-014
rhumerus -49.2893 12.4186 -72.7994
rradius 42.2917
rwrist 2.06139
rhand -22.0097 -31.2264
rfingers 7.12502
rthumb 4.39943 -61.1607
lclavicle -5.19822e-014 2.34566e-014
lhumerus -28.3475 -31.1326 97.8129
lradius 58.7558
lwrist 17.6223
lhand -30.4857 -27.2001
lfingers 7.12502
lthumb -3.78653 2.74602
rfemur -17.761 -0.60011 10.4766
rtibia 32.1094
rfoot -20.3115 -4.9596
rtoes -34.7201
lfemur -0.0107659 0.135077 -17.5277
ltibia 66.2707
lfoot -10.1092 2.38514
ltoes 15.5383
408
root -3.48156 15.8925 13.7904 18.793 121.172 18.0305
lowerback 13.0388 -1.54241 3.33159
upperback 5.36178 -1.14019 3.12521
thorax -1.68462 -0.38602 1.53659
lowerneck -21.9714 4.39293 7.36535
upperneck 28.2802 5.78913 -5.02741
head 13.6183 2.79746 -2.14639
rclavicle 1.08338e-014 2.0276e-014
rhumerus -47.9693 11.2714 -73.6972
rradius 43.2186
rwrist 1.02494
rhand -22.1075 -30.881
rfingers 7.12502
rthumb 4.30498 -60.8172
lclavicle 1.08338e-014 2.0276e-014
lhumerus -28.6526 -29.4987 98.3045
lradius 54.5362
lwrist 16.9574
lhand -30.8141 -26.8278
lfingers 7.12502
lthumb -4.10364 3.11246
rfemur -16.3438 -0.719902 11.3919
rtibia 30.9934
rfoot -20.7495 -5.73942
rtoes -33.9093
lfemur -3.15498 1.22609 -16.5136
ltibia 67.6847
lfoot -10.5523 1.69447
ltoes 12.5236
409
root -3.31979 15.964 13.7437 19.2599 122.15 18.284
lowerback 13.1635 -1.38224 3.89338
upperback 5.2492 -0.845799 3.11572
thorax -1.8783 -0.234626 1.17205
lowerneck -22.0828 4.08705 7.08295
upperneck 28.228 5.37574 -4.84145
head 13.5702 2.612 -2.09983
rclavicle -7.95139e-015 2.78299e-015
rhumerus -46.4548 10.0184 -74.4805
rradius 44.0042
rwrist 1.10633
rhand -21.6983 -30.1963
rfingers 7.12502
rthumb 4.7001 -60.1242
lclavicle -7.95139e-015 2.78299e-015
lhumerus -28.796 -27.5558 98.4381
lradius 50.3748
lwrist 15.9241
lhand -30.9659 -26.3582
lfingers 7.12502
lthumb -4.25017 3.5791
rfemur -15.283 -0.893135 12.0211
rtibia 30.091
rfoot -21.1258 -6.12952
rtoes -32.7062
lfemur -6.54233 2.61387 -16.0212
ltibia 68.6531
lfoot -10.6071 1.45924
ltoes 7.72944
410
root -3.1363 16.0447 13.6952 19.0069 123.134 18.0011
lowerback 13.299 -1.19903 3.96679
upperback 5.29394 -0.579604 3.07435
thorax -1.90372 -0.0968935 1.05009
lowerneck -22.1718 3.78621 6.92158
upperneck 27.9915 4.95481 -4.80507
head 13.4507 2.41147 -2.13319
rclavicle -1.0466e-013 -5.1684e-015
rhumerus -44.8601 9.04353 -75.4138
rradius 44.7295
rwrist 0.794924
rhand -21.6391 -29.0441
rfingers 7.12502
rthumb 4.7573 -58.9707
lclavicle -1.0466e-013 -5.1684e-015
lhumerus -28.7365 -25.3392 98.2181
lradius 46.311
lwrist 14.578
lhand -31.1323 -26.2089
lfingers 7.12502
lthumb -4.41085 3.72515
rfemur -13.4004 -0.824551 12.4649
rtibia 28.5334
rfoot -21.4418 -6.7003
rtoes -31.3668
lfemur -9.39041 3.85594 -15.8377
ltibia 70.0246
lfoot -11.5349 0.475511
ltoes 8.46834
411
root -2.95505 16.1207 13.6489 19.1666 124.331 18.2122
lowerback 13.5483 -1.09391 4.36491
upperback 5.25497 -0.359478 3.10683
thorax -2.07842 0.0186825 0.830784
lowerneck -22.1918 3.45372 6.72492
upperneck 27.7786 4.51202 -4.76365
head 13.3255 2.20056 -2.1624
rclavicle 3.71727e-014 -3.89618e-014
rhumerus -43.4572 8.46886 -76.567
rradius 45.5848
rwrist -0.00483399
rhand -21.3574 -28.4177
rfingers 7.12502
rthumb 5.02925 -58.338
lclavicle 3.71727e-014 -3.89618e-014
lhumerus -28.6668 -22.937 97.7165
lradius 42.2856
lwrist 12.9752
lhand -31.3984 -26.2248
lfingers 7.12502
lthumb -4.66787 3.70376
rfemur -11.496 -0.812972 13.306
rtibia 26.8795
rfoot -21.5046 -7.49511
rtoes -30.4191
lfemur -12.2871 5.03758 -15.3843
ltibia 70.5703
lfoot -11.949 -0.178317
ltoes 7.08448
412
root -2.771 16.1942 13.6012 19.2677 125.437 18.5038
lowerback 13.8863 -0.958865 4.78399
upperback 5.24683 -0.0860187 3.1275
thorax -2.26435 0.161915 0.578032
lowerneck -22.291 3.07831 6.41516
upperneck 27.7043 4.02398 -4.61671
head 13.2674 1.97355 -2.13901
rclavicle 7.56376e-014 -1.39149e-014
rhumerus -42.0178 7.99308 -77.6978
rradius 46.476
rwrist -0.490501
rhand -20.8836 -28.0578
rfingers 7.12502
rthumb 5.48673 -57.9668
lclavicle 7.56376e-014 -1.39149e-014
lhumerus -28.6173 -20.2881 96.9271
lradius 38.5149
lwrist 11.0534
lhand -31.6052 -26.268
lfingers 7.12502
lthumb -4.86754 3.65607
rfemur -9.55716 -0.832014 14.18
rtibia 25.2187
rfoot -21.403 -8.285
rtoes -30.053
lfemur -15.0343 6.25357 -15.0203
ltibia 71.0044
lfoot -12.8522 -1.05783
ltoes 4.81802
413
root -2.60111 16.2602 13.5332 19.1084 126.43 18.4643
lowerback 14.2672 -0.849163 5.32653
upperback 5.17125 0.166851 3.01196
thorax -2.53947 0.28942 0.114377
lowerneck -21.7983 2.85726 6.85181
upperneck 27.1233 3.73367 -5.2246
head 12.9299 1.81051 -2.49827
rclavicle -5.88403e-014 -6.75868e-015
rhumerus -40.5916 7.75757 -78.8254
rradius 47.3284
rwrist -0.747979
rhand -20.6906 -27.5926
rfingers 7.12502
rthumb 5.67309 -57.4967
lclavicle -5.88403e-014 -6.75868e-015
lhumerus -28.7771 -17.5211 95.8703
lradius 35.2365
lwrist 8.84924
lhand -31.6262 -26.2985
lfingers 7.12502
lthumb -4.8878 3.62508
rfemur -7.73174 -1.52107 14.5953
rtibia 23.7409
rfoot -21.3791 -8.35198
rtoes -30.2862
lfemur -17.6789 7.33535 -15.2043
ltibia 71.0781
lfoot -13.6991 -1.31263
ltoes 3.41405
